<svg width="44" height="52" viewBox="0 0 44 52" fill="none" xmlns="http://www.w3.org/2000/svg">
<path d="M22.0574 15.2636C19.9587 15.2636 16.7099 13 13.2887 13.0818C8.77491 13.1364 4.63491 15.5636 2.30616 19.4091C-2.38009 27.1273 1.09866 38.5273 5.66991 44.8C7.91241 47.8546 10.5574 51.2909 14.0649 51.1818C17.4287 51.0455 18.6937 49.1091 22.7762 49.1091C26.8299 49.1091 27.9799 51.1818 31.5449 51.1C35.1674 51.0455 37.4674 47.9909 39.6812 44.9091C42.2399 41.3636 43.3037 37.9273 43.3612 37.7364C43.2749 37.7091 36.3174 35.1727 36.2312 27.5364C36.1737 21.1546 41.7224 18.1 41.9812 17.9636C38.8187 13.5727 33.9599 13.0818 32.2637 12.9727C27.8362 12.6455 24.1274 15.2636 22.0574 15.2636ZM29.5324 8.82728C31.4012 6.70001 32.6374 3.72728 32.2924 0.78183C29.6187 0.890921 26.3987 2.47274 24.4724 4.60001C22.7474 6.48183 21.2524 9.5091 21.6549 12.4C24.6162 12.6182 27.6637 10.9546 29.5324 8.82728Z" fill="#F5F5F7"/>
</svg>
